<svg id="Capa_1" data-name="Capa 1" xmlns="http://www.w3.org/2000/svg" xmlns:xlink="http://www.w3.org/1999/xlink" viewBox="0 0 1080 1080"><defs><style>.cls-1{fill:url(#Degradado_sin_nombre_56);}.cls-2{fill:url(#Degradado_sin_nombre_56-2);}</style><linearGradient id="Degradado_sin_nombre_56" x1="14.02" y1="540" x2="1065.98" y2="540" gradientUnits="userSpaceOnUse"><stop offset="0" stop-color="#f08800"/><stop offset="0.34" stop-color="#f49c00"/><stop offset="0.67" stop-color="#f7a900"/><stop offset="1" stop-color="#f8ad00"/></linearGradient><linearGradient id="Degradado_sin_nombre_56-2" x1="335.02" y1="531.68" x2="744.35" y2="531.68" xlink:href="#Degradado_sin_nombre_56"/></defs><path class="cls-1" d="M908,908c101.86-101.86,153-235.24,153.34-368.75.4-134.53-50.7-269.19-153.34-371.84-204.51-204.51-536.08-204.51-740.59,0C64.72,270,13.62,404.69,14,539.22,14.41,672.73,65.5,806.11,167.36,908A521.74,521.74,0,0,0,514.83,1060.8l-.07,0h1.83c10.07.41,20.15.46,30.23.29L1066,1066Zm-131.7-131.7c-131.77,131.78-345.42,131.78-477.19,0a337.5,337.5,0,0,1,0-477.2c131.77-131.77,345.42-131.77,477.2,0a337.51,337.51,0,0,1,0,477.2Z"/><path class="cls-2" d="M679.26,465.21c-9.08-3.4-18.09-10.89-24.26-19.08-21.85-29-48.77-46.39-83.43-47.8-48.79-2-83.08,23.38-106.62,69.81-4.73-1.36-7.94-2.26-11.15-3.21-54.94-16.19-107,20.37-117.35,82.34-9.48,57,29.34,114.09,84,116,79.94,2.75,160.07,2.34,240-.06,44.61-1.33,79.13-42,83.43-89.93C748.23,524.85,721.26,480.9,679.26,465.21Z"/></svg>