<svg id="Capa_1" data-name="Capa 1" xmlns="http://www.w3.org/2000/svg" viewBox="0 0 1080 1080"><defs><style>.cls-1{fill:#fff;}</style></defs><path class="cls-1" d="M812.12,812.14a387.36,387.36,0,0,0,0-547.72c-151.24-151.25-396.46-151.25-547.71,0a387.26,387.26,0,0,0,257,660.75l0,0h1.35c7.45.3,14.9.34,22.35.21L929,929Zm-97.4-97.4c-97.45,97.46-255.46,97.46-352.91,0a249.6,249.6,0,0,1,0-352.92c97.45-97.46,255.46-97.46,352.92,0a249.61,249.61,0,0,1,0,352.92Z"/><path class="cls-1" d="M643,484.68c-6.73-2.51-13.39-8.05-18-14.1-16.16-21.47-36.07-34.32-61.7-35.35-36.08-1.46-61.45,17.28-78.85,51.62-3.5-1-5.88-1.67-8.25-2.37-40.63-12-79.17,15.06-86.79,60.9-7,42.15,21.7,84.38,62.11,85.76,59.12,2,118.38,1.73,177.53,0,33-1,58.52-31,61.69-66.51C694,528.79,674.06,496.29,643,484.68Z"/></svg>