<svg id="Capa_1" data-name="Capa 1" xmlns="http://www.w3.org/2000/svg" viewBox="0 0 628.68 394"><defs><style>.cls-1{fill:#377db5;}.cls-2{fill:#edf4fa;}.cls-3{fill:#acd2ec;}</style></defs><path class="cls-1" d="M580.33,281.62c-7.24,31.76-24,57-51.62,74.61a112.89,112.89,0,0,1-50.23,17.51c-8.16.81-16.25.74-24.37.75-107.77.06-215.53.25-323.29-.05C87,374.32,49.56,342.26,41.15,300c-1.92-9.65-2-19.29-1.46-29.16.49-9.66,4.32-18,6.89-26.91,4.38-8.21,9-16.23,14.9-23.49,9.17-11.19,20.74-19,33.71-24.82,4-1.79,5.45-3.79,5.16-8.11a70.92,70.92,0,0,1,8.17-38c13.09-24.78,33.2-41.31,61.34-46.9,18.7-3.72,36.64-1.08,54,6.45,2.54,1.1,3.45,1,4.54-1.87,2.51-6.64,4.57-13.85,8.73-19.39,6.75-9,13.67-18,22.19-25.54,20.79-18.52,45.13-29.59,72.31-34.41a155.11,155.11,0,0,1,72.32,4.33c29.92,8.93,54.84,25.32,72.89,51.12,10.18,14.56,16.93,30.62,18.38,48.6.28,3.47,1.21,6.89.92,10.41-.23,2.78,1.74,3.08,3.71,3.7,13.75,4.37,26.58,10.49,37.8,19.72,20.27,16.68,34.94,37,41.37,62.83a21.62,21.62,0,0,0,.87,2.27c.12.57.25,1.14.37,1.71-.26,1.2-.38,2.38.65,3.33.12.55.24,1.09.35,1.64-.62,3.8,1,7.37,1.16,11.1.15,1.37.3,2.74.44,4.1-.42,6.29-1.14,12.56-.62,18.88-.11.89-.23,1.79-.34,2.68C580.53,276.56,580.55,279.11,580.33,281.62Zm-424.15-26c13.78,1,27.57.16,41.35.42,3.31.06,3.11-2.25,3.11-4.45,0-10.64-.24-21.29.14-31.92.19-5.12-1.72-5.7-6.12-5-12.12,1.89-24.3,3.41-36.46,5.07-.86-.15-1.64-.12-1.95.91a1.21,1.21,0,0,0-.14.85,38.2,38.2,0,0,0,0,14.18v3.83C155,244.88,154.65,250.26,156.18,255.62Zm75.52,3.45h-24c-2.28,0-4.31.1-4.29,3.33.08,12.14,0,24.28.06,36.42,0,2.76,1,4.87,4.57,4,1.21-.3,2.62.16,3.93.33,14,1.77,28,3.51,42,5.36,3.61.47,5.47-.12,5.38-4.51q-.39-19.95,0-39.91c.08-4.18-1.66-5.08-5.28-5C246.67,259.18,239.18,259.08,231.7,259.07Zm-.12-3c7.83,0,15.65-.1,23.47.05,3.11.06,4.41-.79,4.37-4.18q-.26-20.71,0-41.44c0-3.29-.87-4.45-4.28-4-16,2.27-31.94,4.38-47.92,6.52-2.44.33-3.83,1.2-3.79,4.09q.22,17.46,0,34.94c0,3.12,1.27,4.05,4.17,4C215.61,256,223.6,256,231.58,256.05Zm-31,24.15h0c0-5.83-.07-11.65,0-17.47,0-2.48-.81-3.67-3.43-3.65q-19,.07-37.95,0c-2.52,0-3.5,1-3.51,3.6,0,9.65-.16,19.29-.36,28.94-.06,3.08,1.25,4.5,4.31,4.86,12.22,1.46,24.43,3,36.62,4.65,3.42.47,4.45-.69,4.35-4C200.52,291.52,200.63,285.85,200.63,280.2Zm128.91,15.38c-.22-1.93.7-2.49,1.31-3.23l13.55-16.6c1-1.2,1.81-2.53,1.21-4.09s-2.27-1-3.48-1.06c-5.66-.07-11.32,0-17-.08-2,0-3.54.73-3.5,2.53s1.65,2.54,3.62,2.47c3.88-.13,7.77,0,12.71,0l-17.65,21.91c-4.47-11.6-9-23.18-13.37-34.81-.81-2.15-1.89-3.43-4.28-3-1.58.3-3.51-.93-4.51,1.76-4.44,12-9.13,23.84-13.64,35.78-.53,1.39-1.58,3.4.83,4.17,2.06.65,3.9.22,4.72-2.27.89-2.68,2-5.28,3-7.94.39-1.12.72-2.55,2-2.58,4.81-.16,9.76-.73,14.39.17,3.07.59,2.55,5,3.79,7.56,1,2,1.08,4.39,4.44,4.3,8.47-.21,17-.07,25.44-.05,1.59,0,3,0,3.05-2.23s-1.1-2.75-3.06-2.72C338.61,295.63,334.15,295.58,329.54,295.58Zm-7.34-79.07,1,.29c0,10,0,20,0,29.95,0,1.21-.56,3.06,1.35,3.22,2.11.16,1.56-1.77,1.56-2.95.05-11.65,0-23.3,0-35,0-1.5.16-3.07-2.1-3.17-1.89-.09-3.26.39-3.72,2.42-2.2,9.78-7.07,18.54-10.6,27.81-.56,1.47-.76,3.55-2.94,3.54s-2.15-2.23-2.74-3.61c-3.88-9.14-7.67-18.31-11.47-27.48-.68-1.65-1.53-3.05-3.62-2.59s-1.74,2.14-1.74,3.62c0,11.32,0,22.64,0,33.95,0,1.37-.52,3.44,1.71,3.46s1.88-2,1.89-3.4c0-7.32-.05-14.65.08-22,0-1.64-.82-3.68,1.71-5.26,3.6,8.71,7.08,17.27,10.71,25.77.79,1.85.74,4.82,3.49,4.89,3.16.08,2.9-3.22,3.72-5.14C314.58,235.5,318.35,226,322.2,216.51ZM415,287.27v0h8c1.64,0,3.12-.38,3-2.44-.69-10.4-7.65-17.35-17.27-14.57-6.17,1.79-9.63,6.43-10.4,13.78-.62,6,3,13.25,7.76,15.68,5.27,2.66,14.27.81,17.19-3.74.95-1.48,3.08-3.59.79-5.07-1.51-1-3.73-.83-5.24,1.88-2.38,4.28-10,4.11-12.82,0-.79-1.16-1.56-2.85-1.31-4.08.36-1.73,2.34-1.45,3.83-1.46Zm-45.19,9.38c.1,3,1,4.36,3.55,3.8s1.67-2.58,1.69-4c.09-7.33.13-14.66,0-22,0-1.8,1.36-4.72-2.38-4.85s-3.22,2.56-3.26,4.86c-.09,5,.09,10-.29,15-.33,4.32-3.46,6.5-8,6.34-4.69-.16-5.1-3.27-5-6.92.07-5.16,0-10.32,0-15.49,0-1.77-.51-2.9-2.54-2.76-1.43.1-3.38-.41-3.29,1.89.28,7.46-1.16,15,.93,22.35.66,2.31,1.42,5.22,4.27,5.42C360.32,300.59,365.57,302.1,369.85,296.65Zm107.26-59.83c0-3.33.16-6.66,0-10-.31-5.1,3.42-3.32,5.82-3.46s5.5-1,5.27,3.55c-.28,5.81.06,11.64,0,17.46-.07,4.55,3.09,5.39,6.49,6a1.59,1.59,0,0,0,2-1c.38-1.43-.67-1.67-1.71-1.74-3.64-.28-4.06-2.81-4.06-5.68,0-4.82.09-9.65-.05-14.47-.09-2.74.36-4.61,3.71-4.21,1,.12,2.19-.14,2.2-1.41,0-1.45-1.32-1.22-2.24-1.2-2.28.08-3.68-.36-3.77-3.22-.06-2.18,1.53-6-1.69-6.13-1.74-.1-.55,4-.87,6.18-.21,1.46.1,3.34-2.16,3.06-2.93-.37-6.68,1.7-8.66-1.39-2.08-3.24.31-6.93,4.3-7.6,1-.16,2.19,0,2.19-1.37s-1.11-1.41-2.15-1.55c-4.15-.56-7.37,2.47-7.53,7.14-.09,2.35.84,5.35-3.36,4.93a1.15,1.15,0,0,0-1.41,1.05,1.34,1.34,0,0,0,1.56,1.48c3.33-.25,3.22,1.91,3.2,4.2q-.06,9.73,0,19.47c0,1.22-.43,3.11,1.52,3.06s1.42-1.92,1.44-3.16C477.15,243.48,477.11,240.15,477.11,236.82Zm-51.05,13.75c.5,0,1,0,1.5,0,5.68-.09,9.79-3,10.4-7.31.6-4.17-2.31-7.51-8-9.15-2.8-.82-5.6-1.67-8.43-2.41-1.86-.49-2.65-1.87-3.19-3.48-.65-2,.65-3.24,1.92-4.24,4.06-3.2,11.28-1.48,13.55,3.22.58,1.19.7,2.94,2.5,2.1,1.27-.59.58-2,.25-3.12-1.67-5.48-8.06-7.93-14.94-5.8-3.73,1.16-7.44,2.73-6.9,7.34.49,4.19,2.61,7.47,7.7,7.9a41.35,41.35,0,0,1,9.1,2.31,4.64,4.64,0,0,1,3.47,4.4c0,2.44-1.55,4-3.64,4.89-5.88,2.63-11.17.64-14-5.2-.46-.94-.26-2.71-2-2.2-1.89.55-1.05,2.08-.71,3.3C416.11,248.27,419.59,250.54,426.06,250.57ZM441.14,235c-.05,9.83,4.62,15.5,12.78,15.52q14.06,0,14.14-15.1c.06-9.19-5.7-15.85-13.65-15.79S441.18,225.67,441.14,235ZM397.3,250.54c8.7,0,13.86-5.62,13.83-15.07s-5.47-15.75-13.52-15.79-13.45,6.25-13.46,15.76C384.14,244.76,389.17,250.53,397.3,250.54Zm-16.07,34.62c0,3.49-.09,7,0,10.48.07,2.09-1,5,3,4.86s2.65-3.09,2.78-5.11c.19-3,0-6,.05-9,0-6.77,1.24-8.77,7.91-10.73,2.48-.73,2-2.11,2.11-3.67.1-2.15-1.34-2.42-3-2.31-3.76.24-7.27,2.23-11.31,1.08-1.84-.53-1.57,1.66-1.58,2.9C381.19,277.5,381.22,281.33,381.23,285.16Zm-27.59-34.58c5.4.31,9.28-2,11.53-6.89.57-1.25,2-2.91,0-3.85-2.25-1.07-2.5,1.09-3.15,2.58-2.28,5.17-6.3,6.91-11.66,5.15-6.71-2.21-9.49-12.68-5.28-19.88,4.11-7,13.14-7.13,17.47-.28.67,1.05.56,3.7,2.78,2.33,1.72-1.06,0-2.74-.43-4a7.47,7.47,0,0,0-2.12-2.67,13.24,13.24,0,0,0-15.67-1.68c-5.88,3.54-8.27,11.26-6,19.44C342.93,247.58,346.74,250.54,353.64,250.58Zm20-25.78c-1.05-1.47.44-3.64-1.86-3.94-1-.14-1.29.86-1.3,1.73q0,12.71,0,25.42c0,.89.4,1.82,1.28,1.9,1.46.11,1.31-1.17,1.32-2.12,0-3.82,0-7.64,0-11.46.06-7.69,2.18-10.62,9.41-13,1-.31,2.13-.5,1.88-1.79s-1.57-.85-2.47-.91C378.49,220.41,376.12,222.55,373.63,224.8Zm-37.54,10.42h0c0-3.65.06-7.29,0-10.94,0-1.49.59-3.72-2.07-3.63-2.24.08-1.77,2-1.78,3.42q-.09,11.18,0,22.37c0,1.51-.56,3.87,2,3.69,2.18-.15,1.86-2.36,1.88-4C336.11,242.51,336.09,238.86,336.09,235.22Zm.06-23c-.14-1.29.27-3.12-1.82-3.28s-2.2,1.54-2.1,3-.55,3.63,2,3.62C336.42,215.56,336,213.66,336.15,212.18Z"/><path class="cls-2" d="M231.7,259.08c7.48,0,15,.1,22.45,0,3.62-.07,5.36.83,5.28,5Q259,284,259.42,304c.09,4.39-1.77,5-5.38,4.51-14-1.85-28-3.59-42-5.36-1.31-.17-2.72-.63-3.93-.33-3.61.91-4.55-1.2-4.57-4-.09-12.14,0-24.28-.06-36.42,0-3.23,2-3.33,4.29-3.33Z"/><path class="cls-2" d="M231.58,256c-8,0-16-.07-24,0-2.9,0-4.2-.89-4.17-4q.17-17.48,0-34.94c0-2.89,1.35-3.76,3.79-4.09,16-2.14,32-4.25,47.92-6.52,3.41-.48,4.31.68,4.28,4q-.19,20.72,0,41.44c0,3.39-1.26,4.24-4.37,4.18C247.23,256,239.41,256.05,231.58,256Z"/><path class="cls-2" d="M200.63,280.2c0,5.65-.11,11.32.05,17,.1,3.27-.93,4.43-4.35,4-12.19-1.69-24.4-3.19-36.62-4.65-3.06-.36-4.37-1.78-4.31-4.86.2-9.65.34-19.29.36-28.94,0-2.56,1-3.61,3.51-3.6q19,.06,37.95,0c2.62,0,3.47,1.17,3.43,3.65-.1,5.82,0,11.64,0,17.47Z"/><path class="cls-2" d="M156.11,221.49a1.21,1.21,0,0,1,.14-.85l1.95-.91c12.16-1.66,24.34-3.18,36.46-5.07,4.4-.69,6.31-.11,6.12,5-.38,10.63-.13,21.28-.14,31.92,0,2.2.2,4.51-3.11,4.45-13.78-.26-27.57.54-41.35-.42l-.09-16.12v-3.83Q156.1,228.58,156.11,221.49Z"/><path class="cls-2" d="M329.54,295.58c4.61,0,9.07.05,13.54,0,2,0,3.16.35,3.06,2.72s-1.46,2.23-3.05,2.23c-8.48,0-17-.16-25.44.05-3.36.09-3.47-2.29-4.44-4.3-1.24-2.6-.72-7-3.79-7.56-4.63-.9-9.58-.33-14.39-.17-1.27,0-1.6,1.46-2,2.58-.94,2.66-2.06,5.26-3,7.94-.82,2.49-2.66,2.92-4.72,2.27-2.41-.77-1.36-2.78-.83-4.17,4.51-11.94,9.2-23.82,13.64-35.78,1-2.69,2.93-1.46,4.51-1.76,2.39-.46,3.47.82,4.28,3,4.39,11.63,8.9,23.21,13.37,34.81L338,275.48c-4.94,0-8.83-.09-12.71,0-2,.07-3.58-.66-3.62-2.47s1.49-2.57,3.5-2.53c5.65.13,11.31,0,17,.08,1.21,0,2.85-.62,3.48,1.06s-.23,2.89-1.21,4.09l-13.55,16.6C330.24,293.09,329.32,293.65,329.54,295.58Zm-21.76-13.37c-.31-4.15-3.33-7.32-3.95-11.44-.34-2.33-2.79-1.37-3.47.42-1.35,3.53-4.37,7.53-3,10.64,1,2.24,6.07.51,9.31.71A5.36,5.36,0,0,0,307.78,282.21Z"/><path class="cls-2" d="M322.2,216.51c-3.85,9.48-7.62,19-11.62,28.4-.82,1.92-.56,5.22-3.72,5.14-2.75-.07-2.7-3-3.49-4.89-3.63-8.5-7.11-17.06-10.71-25.77C290.13,221,291,223,291,224.65c-.13,7.32,0,14.65-.08,22,0,1.45.24,3.42-1.89,3.4s-1.71-2.09-1.71-3.46c0-11.31,0-22.63,0-33.95,0-1.48-.26-3.17,1.74-3.62s2.94.94,3.62,2.59c3.8,9.17,7.59,18.34,11.47,27.48.59,1.38.51,3.6,2.74,3.61s2.38-2.07,2.94-3.54c3.53-9.27,8.4-18,10.6-27.81.46-2,1.83-2.51,3.72-2.42,2.26.1,2.1,1.67,2.1,3.17,0,11.65,0,23.3,0,35,0,1.18.55,3.11-1.56,2.95-1.91-.16-1.34-2-1.35-3.22,0-10,0-20,0-29.95Z"/><path class="cls-2" d="M415,287.27h-6.49c-1.49,0-3.47-.27-3.83,1.46-.25,1.23.52,2.92,1.31,4.08,2.78,4.07,10.44,4.24,12.82,0,1.51-2.71,3.73-2.85,5.24-1.88,2.29,1.48.16,3.59-.79,5.07-2.92,4.55-11.92,6.4-17.19,3.74-4.8-2.43-8.38-9.67-7.76-15.68.77-7.35,4.23-12,10.4-13.78,9.62-2.78,16.58,4.17,17.27,14.57.14,2.06-1.34,2.43-3,2.44h-8Zm-3.76-5.43c1.17,0,2.33,0,3.49,0,1.63,0,3.65.28,4.19-1.77s-1.15-3-2.58-3.84a11.35,11.35,0,0,0-3.59-1.58c-3-.54-8.3,3.14-7.72,5.62.73,3.13,3.79,1,5.72,1.57A1.34,1.34,0,0,0,411.28,281.84Z"/><path class="cls-2" d="M369.85,296.65c-4.28,5.45-9.53,3.94-14.38,3.6-2.85-.2-3.61-3.11-4.27-5.42-2.09-7.35-.65-14.89-.93-22.35-.09-2.3,1.86-1.79,3.29-1.89,2-.14,2.54,1,2.54,2.76,0,5.17.07,10.33,0,15.49-.05,3.65.36,6.76,5,6.92,4.53.16,7.66-2,8-6.34.38-5,.2-10,.29-15,0-2.3-.4-5,3.26-4.86s2.34,3.05,2.38,4.85c.15,7.32.11,14.65,0,22,0,1.46.84,3.47-1.69,4S370,299.63,369.85,296.65Z"/><path class="cls-2" d="M477.11,236.82c0,3.33,0,6.66,0,10,0,1.24.45,3.11-1.44,3.16s-1.51-1.84-1.52-3.06q-.06-9.74,0-19.47c0-2.29.13-4.45-3.2-4.2a1.34,1.34,0,0,1-1.56-1.48,1.15,1.15,0,0,1,1.41-1.05c4.2.42,3.27-2.58,3.36-4.93.16-4.67,3.38-7.7,7.53-7.14,1,.14,2.14.29,2.15,1.55s-1.21,1.21-2.19,1.37c-4,.67-6.38,4.36-4.3,7.6,2,3.09,5.73,1,8.66,1.39,2.26.28,1.95-1.6,2.16-3.06.32-2.18-.87-6.28.87-6.18,3.22.18,1.63,3.95,1.69,6.13.09,2.86,1.49,3.3,3.77,3.22.92,0,2.25-.25,2.24,1.2,0,1.27-1.19,1.53-2.2,1.41-3.35-.4-3.8,1.47-3.71,4.21.14,4.82,0,9.65.05,14.47,0,2.87.42,5.4,4.06,5.68,1,.07,2.09.31,1.71,1.74a1.59,1.59,0,0,1-2,1c-3.4-.62-6.56-1.46-6.49-6,.09-5.82-.25-11.65,0-17.46.23-4.57-2.81-3.69-5.27-3.55s-6.13-1.64-5.82,3.46C477.27,230.16,477.11,233.49,477.11,236.82Z"/><path class="cls-2" d="M426.06,250.57c-6.47,0-9.95-2.3-11.4-7.45-.34-1.22-1.18-2.75.71-3.3,1.73-.51,1.53,1.26,2,2.2,2.85,5.84,8.14,7.83,14,5.2,2.09-.93,3.68-2.45,3.64-4.89a4.64,4.64,0,0,0-3.47-4.4,41.35,41.35,0,0,0-9.1-2.31c-5.09-.43-7.21-3.71-7.7-7.9-.54-4.61,3.17-6.18,6.9-7.34,6.88-2.13,13.27.32,14.94,5.8.33,1.09,1,2.53-.25,3.12-1.8.84-1.92-.91-2.5-2.1-2.27-4.7-9.49-6.42-13.55-3.22-1.27,1-2.57,2.27-1.92,4.24.54,1.61,1.33,3,3.19,3.48,2.83.74,5.63,1.59,8.43,2.41,5.66,1.64,8.57,5,8,9.15-.61,4.34-4.72,7.22-10.4,7.31C427.06,250.58,426.56,250.57,426.06,250.57Z"/><path class="cls-2" d="M441.14,235c0-9.35,5.18-15.3,13.27-15.37s13.71,6.6,13.65,15.79q-.09,15.15-14.14,15.1C445.76,250.52,441.09,244.85,441.14,235Zm2.93.39c.05,6.24,2.52,10.62,6.85,12.12,4.17,1.45,8.07.72,10.8-2.66,3.14-3.87,4.75-8.55,2.67-13.46-1.61-3.82-2.91-8.18-8.22-8.84C449,221.67,444,226.83,444.07,235.41Z"/><path class="cls-2" d="M397.3,250.54c-8.13,0-13.16-5.78-13.15-15.1,0-9.51,5.38-15.8,13.46-15.76s13.49,6.38,13.52,15.79S406,250.55,397.3,250.54Zm-10.21-15.12c0,7.46,4.85,13.3,10.83,13,6.43-.34,10.69-6.44,10.23-14.65-.41-7.09-5.34-11.74-11.85-11.17C390.9,223.06,387.1,228.35,387.09,235.42Z"/><path class="cls-2" d="M381.23,285.16c0-3.83,0-7.66,0-11.49,0-1.24-.26-3.43,1.58-2.9,4,1.15,7.55-.84,11.31-1.08,1.63-.11,3.07.16,3,2.31-.07,1.56.37,2.94-2.11,3.67-6.67,2-7.88,4-7.91,10.73,0,3,.14,6-.05,9-.13,2,1.23,5-2.78,5.11s-2.92-2.77-3-4.86C381.14,292.15,381.23,288.65,381.23,285.16Z"/><path class="cls-2" d="M353.64,250.58c-6.9,0-10.71-3-12.55-9.75-2.23-8.18.16-15.9,6-19.44a13.24,13.24,0,0,1,15.67,1.68,7.47,7.47,0,0,1,2.12,2.67c.45,1.26,2.15,2.94.43,4-2.22,1.37-2.11-1.28-2.78-2.33-4.33-6.85-13.36-6.73-17.47.28-4.21,7.2-1.43,17.67,5.28,19.88,5.36,1.76,9.38,0,11.66-5.15.65-1.49.9-3.65,3.15-2.58,2,.94.55,2.6,0,3.85C362.92,248.61,359,250.89,353.64,250.58Z"/><path class="cls-2" d="M373.63,224.8c2.49-2.25,4.86-4.39,8.34-4.15.9.06,2.2-.44,2.47.91s-.91,1.48-1.88,1.79c-7.23,2.36-9.35,5.29-9.41,13,0,3.82,0,7.64,0,11.46,0,1,.14,2.23-1.32,2.12-.88-.08-1.28-1-1.28-1.9q0-12.72,0-25.42c0-.87.27-1.87,1.3-1.73C374.07,221.16,372.58,223.33,373.63,224.8Z"/><path class="cls-2" d="M336.09,235.22c0,3.64,0,7.29,0,10.93,0,1.62.3,3.83-1.88,4-2.52.18-1.95-2.18-2-3.69q-.09-11.19,0-22.37c0-1.38-.46-3.34,1.78-3.42,2.66-.09,2,2.14,2.07,3.63.09,3.65,0,7.29,0,10.94Z"/><path class="cls-2" d="M336.15,212.18c-.19,1.48.27,3.38-1.92,3.38-2.55,0-1.9-2.13-2-3.62s0-3.2,2.1-3S336,210.89,336.15,212.18Z"/><path class="cls-3" d="M156.09,239.5l.09,16.12C154.65,250.26,155,244.88,156.09,239.5Z"/><path class="cls-3" d="M156.11,221.49q0,7.08,0,14.18A38.2,38.2,0,0,1,156.11,221.49Z"/><path class="cls-3" d="M158.2,219.73l-1.95.91C156.56,219.61,157.34,219.58,158.2,219.73Z"/><path class="cls-1" d="M307.78,282.21a5.36,5.36,0,0,1-1.12.33c-3.24-.2-8.33,1.53-9.31-.71-1.36-3.11,1.66-7.11,3-10.64.68-1.79,3.13-2.75,3.47-.42C304.45,274.89,307.47,278.06,307.78,282.21Z"/><path class="cls-1" d="M411.28,281.85a1.6,1.6,0,0,1-.49,0c-1.93-.62-5,1.56-5.72-1.57-.58-2.48,4.73-6.16,7.72-5.62a11.35,11.35,0,0,1,3.59,1.58c1.43.86,3.08,1.93,2.58,3.84s-2.56,1.72-4.19,1.77C413.61,281.87,412.45,281.84,411.28,281.85Z"/><path class="cls-1" d="M444.07,235.41c-.07-8.58,4.88-13.74,12.1-12.84,5.31.66,6.61,5,8.22,8.84,2.08,4.91.47,9.59-2.67,13.46-2.73,3.38-6.63,4.11-10.8,2.66C446.59,246,444.12,241.65,444.07,235.41Z"/><path class="cls-1" d="M387.09,235.42c0-7.07,3.81-12.36,9.21-12.84,6.51-.57,11.44,4.08,11.85,11.17.46,8.21-3.8,14.31-10.23,14.65C391.94,248.72,387.07,242.88,387.09,235.42Z"/></svg>