<svg id="Capa_1" data-name="Capa 1" xmlns="http://www.w3.org/2000/svg" viewBox="0 0 628.68 394"><defs><style>.cls-1{fill:#f28e1c;}.cls-2{fill:#fefefd;}.cls-3{fill:#1b1b1a;}</style></defs><path class="cls-1" d="M292.85,40.09h23c.73,1.34,2.06.85,3.12.92a140.67,140.67,0,0,1,30.83,5.66C390,58.74,420.65,83,441.92,119.17c1.3,2.22,2.27,3.76,5.62,3.47,57-4.92,110,34.41,122.42,90.49.95,4.28.81,8.8,2.78,12.85v25c-1.46.6-.94,2-1.12,3-8.52,50.28-43.07,86.65-92.45,97.41-4.12.9-8.49.54-12.39,2.51H145.91c-.56-1.51-1.95-1-3-1.13-43.09-7.21-74.76-36.26-84.56-77.48-.74-3.13-.39-6.55-2.42-9.34V241c2.33-4.25,2.26-9.13,3.53-13.68a100.8,100.8,0,0,1,88.25-73.43c3.25-.3,6.47.26,8.1-4.48,19.44-56.64,58.73-91.49,116.77-105.6C279.29,42.15,286.29,42.35,292.85,40.09Zm14,297.84V338q72.7,0,145.43,0a114.46,114.46,0,0,0,26.76-2.66c53.76-12.8,86.59-64.18,75.69-118.37-10-49.86-60.42-85.61-110.57-78.42-7.8,1.12-9.39.3-13.09-6.73a141.65,141.65,0,0,0-195.19-57.7c-34.27,19.3-56.55,48.34-67.12,86.28-1.94,6.95-3.92,8.5-11.27,8.59a90.36,90.36,0,0,0-17.34,1.91C96.89,180,68.24,218.1,72,261.56c3.68,42.31,39.7,75.77,83.42,76.25C205.9,338.35,256.38,337.93,306.86,337.93Z"/><path class="cls-2" d="M306.86,337.93c-50.48,0-101,.42-151.43-.12-43.72-.48-79.74-33.94-83.42-76.25C68.24,218.1,96.89,180,140.16,170.93A90.36,90.36,0,0,1,157.5,169c7.35-.09,9.33-1.64,11.27-8.59,10.57-37.94,32.85-67,67.12-86.28a141.65,141.65,0,0,1,195.19,57.7c3.7,7,5.29,7.85,13.09,6.73,50.15-7.19,100.55,28.56,110.57,78.42,10.9,54.19-21.93,105.57-75.69,118.37A114.46,114.46,0,0,1,452.29,338q-72.72-.06-145.43,0ZM298.6,212.4c0-6.87-5-4.28-8.25-4.37-3.94-.1-2.43,3.3-2.45,5.25-.13,11.33.17,22.66-.17,34-.16,5.26,3.18,3.84,5.9,4,2.95.18,5.48.39,5.27-4.15-.36-7.64-.15-15.32,0-23,.08-3.51,1.08-7,5.46-6.89,4.2.16,4.59,3.69,4.61,7,0,7.32.29,14.67-.09,22-.23,4.42,1.5,5.15,5.43,5.17,4.09,0,6-.6,5.65-5.38-.48-7.13-.2-14.31,0-21.47.08-3.76,1.27-7.27,5.83-7.19s4.34,3.84,4.37,7c.07,6.5,0,13,0,19.49,0,8.18,0,8.11,8,7.46,2.06-.17,3-.74,2.94-2.93-.1-10.49.09-21-.19-31.48-.15-5.39-4.2-9.22-9.58-9.81s-9.4,2-12.15,6.62C312.45,205.08,307,204.73,298.6,212.4Zm83.63,15.47c0-2.33,0-4.66,0-7,0-4.89-1-9.22-5.7-11.9-6.16-3.52-16.64-2.91-22.3,1.38a12.81,12.81,0,0,0-4.73,7.4c-.28,1.08-.29,1.87.73,2.56,2.43,1.64,8.19.48,9.81-2,2-3.06,4.77-4,8.18-2.6,3,1.19,2.71,3.86,2.76,6.34.06,2.85-2.26,1.76-3.62,2.07-3.39.78-7,1-10.2,2.16-5.42,1.94-8.76,5.94-9.22,11.85-.39,4.9.64,9.41,5.31,12a13.79,13.79,0,0,0,15.91-1.08c2.92-2.25,4.44-2.59,6.4.72.78,1.32,2.37,2.86,4,1,1.94-2.2,7.08-3.75,5.41-6.52C381.73,238.85,382.51,233.41,382.23,227.87Zm-103.43.61c0-2.89-.05-5.38,0-7.88.15-5.44-1.56-10-6.85-12.16a22.26,22.26,0,0,0-19.73,1,13.12,13.12,0,0,0-6.08,7.63c-.36,1-.78,2.22.41,3.17,2.12,1.7,8.52.73,9.94-1.61,2.05-3.41,4.93-4.32,8.48-2.74,2.77,1.23,2.86,3.88,2.76,6.42-.1,2.79-2.46,1.53-3.82,1.86-3.38.82-6.95,1-10.19,2.19-5.19,1.87-8.6,5.57-9,11.4-.38,5.05.25,9.84,5.22,12.53a13.85,13.85,0,0,0,15.52-.95c2.91-2.15,4.7-2.81,6.82.6.89,1.42,2.53,2.68,4,.82,1.85-2.27,7.15-3.58,5.18-6.73C278.18,238.73,279.16,233.45,278.8,228.48Zm199.05-15a5.8,5.8,0,0,1-.58-1.72c.38-6.18-4.31-3.34-7-3.81-3.58-.64-3.44,1.94-3.43,4.41,0,11.47.28,23-.1,34.4-.16,4.75,2.28,4.49,5.49,4.54,3.44,0,6.08.19,5.73-4.75-.46-6.45-.07-13-.14-19.44a14.85,14.85,0,0,1,1.31-6.77c1-2.05,2.64-3.54,5.12-3.22,2.24.29,3.45,1.85,3.81,4a32.78,32.78,0,0,1,.55,4.92c.07,6.64-.05,13.29.08,19.94,0,1.66-1.14,4.21,1,4.88a17.2,17.2,0,0,0,8.84,0c.92-.21,1-1.26,1-2.09-.31-11,.8-21.95-.68-32.86a9.71,9.71,0,0,0-7.91-8.58c-4.37-1-8.25-.1-11.18,3.57C479.17,211.69,478.62,212.47,477.85,213.51ZM461,229.75a25.92,25.92,0,0,0-2.58-12.81c-3.12-6.37-8.24-9.89-15.41-9.89-7,0-12.19,3.39-15,9.67-4,8.93-4.11,18.1.64,26.82,6.14,11.27,21.18,11.73,28.35,1.06A24.24,24.24,0,0,0,461,229.75Zm-54.3-13c-5,7.21-9.26,13.69-13.9,19.87-2.66,3.55-2.61,7.39-2.47,11.37.07,2,1.07,2.58,3,1.71a29.47,29.47,0,0,1,25.08-.07c1.39.61,2.46.82,3.12-1A7.31,7.31,0,0,0,417.2,239c-3.53-1.43-7.31-1.58-11.44-2.2.82-1.25,1.42-2.19,2.06-3.11,3.9-5.58,7.78-11.17,11.74-16.71a8.46,8.46,0,0,0,.83-8.08c-.78-2-3.6-.93-5.49-1-6.15-.12-12.31.07-18.46-.1-3.14-.08-4.8.38-4.79,4.24s1.27,5,4.91,4.73C399.53,216.52,402.53,216.71,406.7,216.71ZM151.91,246.82c0-5.23.1-9.55,0-13.86-.18-5.94,2.37-13.32-.93-17.43-3.45-4.29-11.2-4.08-17-5.95l-.47-.17c-2.26-.91-3.37-.41-3.34,2.3.1,8.48.07,17,0,25.44a2.87,2.87,0,0,0,2.36,3.19C138.78,242.36,145,244.51,151.91,246.82Zm113.8-83.67c0,4.71-.12,9,0,13.25.2,5.93-2.42,13.38,1,17.38s10.75,4.36,16.36,6.32a9.52,9.52,0,0,1,.94.34c2.07.95,3,.46,3-2q-.1-13.2,0-26.4c0-2-.76-2.91-2.66-3.44C278.34,166.94,272.33,165.1,265.71,163.15ZM233,185.26q0-3.48,0-7c0-8.78,0-8.83-8.59-11.31-4-1.14-8.91-4.59-11.64-2.75-3.2,2.16-1.08,7.92-1.11,12.08,0,5.92-2.49,13.45.95,17.35s11,4.5,16.76,6.54a3.75,3.75,0,0,1,.47.17c2.35,1.15,3.25.42,3.18-2.19C232.92,193.88,233,189.57,233,185.26Zm-54.08,89.93c-.34-4.18,2.15-10.79-.89-14.38-2.79-3.31-9.35-3.43-14.25-4.95a24.77,24.77,0,0,1-2.84-.92c-2.62-1.17-3.51-.35-3.47,2.47q.16,12.21,0,24.42c0,2.32.64,3.63,3,4.34,5.24,1.57,10.43,3.35,15.58,5.22,2.33.84,2.93.12,2.88-2.14C178.88,284.93,178.94,280.61,178.94,275.19Zm54-51h0c0-4.15-.05-8.3,0-12.44,0-2.06-.35-3.18-2.8-2.41-5.37,1.69-10.77,3.28-16.19,4.82-2,.56-2.49,1.76-2.48,3.66.06,8.63.12,17.25,0,25.87-.05,2.87,1.1,2.9,3.26,2.14,4.84-1.69,9.67-3.48,14.61-4.85,3-.84,3.76-2.48,3.6-5.35C232.82,231.79,233,228,233,224.15Zm-27,29.85c-6.68,2-12.85,3.83-19.05,5.59a2.89,2.89,0,0,0-2.38,3.22q.08,13.2,0,26.42c0,2.27.64,2.93,3,2.09,5.3-1.93,10.68-3.65,16.05-5.39,1.62-.52,2.45-1.34,2.44-3.18C205.91,273.31,205.94,263.88,205.94,254Zm-48.41-23.53c0,4.16.08,8.31,0,12.47-.06,2.49.44,3.86,3.34,2.83,5.16-1.83,10.35-3.61,15.56-5.27a3.15,3.15,0,0,0,2.54-3.56q-.12-12.72.05-25.42c0-2.41-.84-2.84-3-2.17a117.86,117.86,0,0,1-12.9,3.75c-4.69.92-6.25,3.3-5.66,7.91C157.85,224.12,157.53,227.32,157.53,230.47ZM206,246.82c0-10.18-.08-19.47.05-28.75,0-2.46-.85-3.52-3.17-4.13q-7.45-2-14.79-4.37c-2.53-.84-3.64-.6-3.6,2.41.12,8.3.08,16.6,0,24.9,0,1.94.61,3,2.51,3.65C193.15,242.48,199.25,244.57,206,246.82Zm32.67-45.47c6.83-2.27,13.08-4.38,19.35-6.42a2.71,2.71,0,0,0,2-3c0-9.43,0-18.86,0-28.76-6.68,2-12.85,3.85-19,5.61-1.48.42-2.29,1-2.28,2.68C238.69,181.22,238.67,191,238.67,201.35Zm54.05-17.61c0,5.15.1,9.48,0,13.8-.09,2.77.28,4.05,3.54,2.75a136.19,136.19,0,0,1,14.18-4.72c3-.83,3.81-2.44,3.73-5.38-.18-6.65,0-13.31,0-20,0-7.12,0-7.17-6.82-5.1-4.74,1.44-11,1.7-13.73,4.9S293.07,179.6,292.72,183.74Zm-39.85,96.91-.84.05c-1.3-4.6-2.72-9.18-3.87-13.81-.58-2.35-2.22-2.27-3.83-2-2.55.38-1.33,2.14-1,3.44,1.9,6.86,3.8,13.73,5.8,20.56.42,1.46.55,3.24,3,3.16s2.51-1.45,2.94-3.16c1-4.2,2.3-8.36,3.47-12.53A79.54,79.54,0,0,1,263,288.75c.45,1.52.56,3.25,3,3.26s2.59-1.39,3-3.11c1.77-6.73,3.71-13.42,5.49-20.14.34-1.26,1.6-3-.52-3.8-2.28-.84-3.26.79-3.79,2.73-1.22,4.42-2.43,8.85-3.84,14-2.42-4.56-2.75-9.08-4.25-13.2-.61-1.68-.5-3.72-3.14-3.7s-2.45,2.4-2.92,3.92C254.8,272.63,253.9,276.66,252.87,280.65Zm54.08-14c0-2.94,0-5.43,0-7.92,0-1.8-.53-2.83-2.55-2.74-1.61.07-2.48.73-2.48,2.39q0,15.44,0,30.88c0,1.56,1.63,2.45,2.18,1.59,2.33-3.61,4.06-.45,5.89.28,4.48,1.77,9.2,0,11.77-4.61a18.43,18.43,0,0,0,1.95-11.1C322.75,265.81,315.81,262,307,266.65Zm47.87,11.79c.08,6.58,2.94,11.5,7.81,13,4.55,1.35,8.95.89,12.28-3,1-1.2,3.32-2.68,1.34-4.51-1.78-1.64-3.44-.89-4.78,1.32a5.12,5.12,0,0,1-6.5,2.28,6.58,6.58,0,0,1-4.39-5.55c-.35-2.13.15-3.05,2.47-3,4,.13,8,0,12,0,1.72,0,2.74-.37,2.76-2.48.05-5.27-3.68-10.57-8.44-11.65a11.11,11.11,0,0,0-13.26,7A14.76,14.76,0,0,0,354.82,278.44ZM290,279h6.47c1.29,0,2.09-.39,2.33-1.91.73-4.59-3.63-11.09-8.33-12.21-6.95-1.64-12.72,2.45-14.36,10.19s2.46,15.56,8.81,16.67c3.5.62,7.09.42,9.85-2.18,1.55-1.46,4.51-3.28,2.54-5.58-2.15-2.52-4-.13-5.34,1.92a3.68,3.68,0,0,1-1.1,1c-2.43,1.56-4.76,1.17-6.9-.55a5.73,5.73,0,0,1-2.22-6.2c.8-2.3,3.46-.74,5.26-1.08A17.52,17.52,0,0,1,290,279Zm176.42,0c1.66,0,3.33.09,5,0s3.82.86,4.08-2.18c.5-6-4.61-12-10.66-12.21-6.24-.25-11.17,4.21-12,10.88-1,8.12,2.27,14.89,8.29,16.17,4.62,1,9.08.32,12.08-3.87.73-1,3-2.42.64-4-1.56-1-3.12-1-4.19.92a6.08,6.08,0,0,1-2.88,2.67c-2.46,1.12-4.57.38-6.4-1.32-1.66-1.55-2.82-3.78-2.16-5.8.81-2.45,3.46-.79,5.26-1.16A14.9,14.9,0,0,1,466.4,279.05ZM488,291.94c6.18.05,10.31-2.74,10.77-7.29s-2.27-7.5-8.64-8.83c-1.46-.3-2.93-.55-4.36-1s-2.85-1.42-2.65-3.12a3.26,3.26,0,0,1,3-2.85c2.66-.42,4.95.14,6.53,2.52,1.15,1.72,2.74,1.2,3.93.39,2-1.34.25-2.69-.55-3.68-3.15-3.92-7.49-3.9-11.85-3a7.16,7.16,0,0,0-6.23,6.81c-.3,3.8,1.76,6.31,5.33,7.42,2.36.73,4.83,1.1,7.23,1.74,1.68.46,3.2,1.36,3.08,3.35s-1.59,2.91-3.29,3.25c-3.13.63-6.08.19-7.87-2.78-1.18-1.95-2.73-1.89-4.17-.94-2.19,1.43-.44,2.95.47,4.12C481.08,291,484.33,292,488,291.94Zm-146.09,0c6,0,9.8-2.59,10.39-7.13.62-4.76-2.08-7.63-8.44-9-1.29-.27-2.58-.57-3.88-.84-1.77-.37-3.25-1.09-3.1-3.2.16-2.32,1.87-2.87,3.85-3a5.64,5.64,0,0,1,5.54,2.59c1.11,1.7,2.81,1.27,4,.45,1.74-1.26.38-2.68-.52-3.75-3.23-3.82-7.55-3.94-11.9-3-3.5.76-5.88,2.89-6.08,6.87s1.74,6.3,5.32,7.39c2.37.72,4.84,1.1,7.24,1.74,1.51.4,2.77,1.21,2.8,3,0,2-1.23,3.06-3,3.48-3.13.76-6.17.29-7.94-2.59-1.4-2.27-3.16-2-4.56-.94-1.92,1.51,0,3,.93,4.15C334.93,291.17,338.25,292.06,341.91,291.94Zm66.4-7.64c-2.19-6.81-3.94-12.15-5.62-17.52-.8-2.55-2.71-2.86-4.75-2.17-2.35.79-.79,2.46-.38,3.71,2.28,6.93,4.72,13.81,6.91,20.77.66,2.13,1.67,2.87,3.87,2.89s2.76-1.48,3.26-3q3.31-10.17,6.53-20.36c.45-1.41,2.13-3.25-.53-4.06-2.17-.66-3.25.68-3.87,2.78C412.18,272.52,410.44,277.69,408.31,284.3Zm26.36-6.11a22.92,22.92,0,0,1,.4-3.44c.73-2.59,1.59-5.25,4.73-5.78,3.34-.56,4.77,1.72,5.7,4.39.69,2,2.24,1.88,3.64,1.43,1.9-.63,1-2.21.61-3.35-1.1-3.37-3.3-5.75-6.87-6.47-3.81-.77-7.22-.06-9.93,3-4.3,5-4.42,15.38-.25,20.45,2.62,3.19,6.07,4,9.85,3.31s6.05-3.26,7.22-6.8c.33-1,1.21-2.45-.35-3-1.28-.45-3-.89-3.89,1-.28.6-.5,1.23-.79,1.83-1,1.95-2.47,3.17-4.7,3A4.83,4.83,0,0,1,436,284.5,14.38,14.38,0,0,1,434.67,278.19ZM308.53,159.52c-17.46-6.38-25.33-6.27-36.62.21C283.86,166,296.05,165.49,308.53,159.52ZM163.47,250.61c12,5.84,24.37,6.07,36.36,0C187.79,243.6,175.4,243.85,163.47,250.61Zm54.26-90.84c11.89,6.06,24.2,5.79,36.25,0C242,153,229.66,152.67,217.73,159.77Zm-26.95,45.41c11.94,6.09,24.13,5.86,36,0C215,198.44,202.86,198.17,190.78,205.18Zm-54,0c12,5.95,24.15,5.73,36,0C160.81,198.52,148.65,198.1,136.74,205.22ZM384,265.69c-2.28-.19-3.14.55-3.12,2.53.07,7,.05,13.92,0,20.89,0,1.76.49,2.75,2.5,2.85,2.53.12,2.54-1.41,2.52-3.19,0-3.48-.17-7,.05-10.44.27-4,1.38-7.63,6-8.57,2-.41,2.36-1.65,2.08-3.27-.38-2.27-2.16-1.53-3.55-1.45C388.2,265.17,386.29,270,384,265.69Zm42.59,12.86c0-3.82,0-7.63,0-11.45,0-1.77-.58-2.84-2.51-2.9s-3,.75-3,2.91q.07,10.93,0,21.89c0,2,.51,3,2.79,3s2.83-1,2.78-3C426.54,285.52,426.6,282,426.6,278.55Zm.3-20.89a2.86,2.86,0,0,0-3.41-2.75,2.75,2.75,0,0,0-2.68,3,2.81,2.81,0,0,0,3.15,3C426,260.89,426.89,259.66,426.9,257.66Z"/><path class="cls-3" d="M298.6,212.4c8.4-7.67,13.85-7.32,20.53,1.32,2.75-4.64,6.67-7.23,12.15-6.62s9.43,4.42,9.58,9.81c.28,10.49.09,21,.19,31.48,0,2.19-.88,2.76-2.94,2.93-8,.65-8,.72-8-7.46,0-6.49.08-13,0-19.49,0-3.16.13-6.91-4.37-7s-5.75,3.43-5.83,7.19c-.16,7.16-.44,14.34,0,21.47.32,4.78-1.56,5.4-5.65,5.38-3.93,0-5.66-.75-5.43-5.17.38-7.31.12-14.66.09-22,0-3.32-.41-6.85-4.61-7-4.38-.16-5.38,3.38-5.46,6.89-.17,7.66-.38,15.34,0,23,.21,4.54-2.32,4.33-5.27,4.15-2.72-.17-6.06,1.25-5.9-4,.34-11.32,0-22.65.17-34,0-1.95-1.49-5.35,2.45-5.25C293.62,208.12,298.64,205.53,298.6,212.4Z"/><path class="cls-3" d="M382.23,227.87c.28,5.54-.5,11,2.77,16.39,1.67,2.77-3.47,4.32-5.41,6.52-1.66,1.88-3.25.34-4-1-2-3.31-3.48-3-6.4-.72a13.79,13.79,0,0,1-15.91,1.08c-4.67-2.6-5.7-7.11-5.31-12,.46-5.91,3.8-9.91,9.22-11.85,3.24-1.15,6.81-1.38,10.2-2.16,1.36-.31,3.68.78,3.62-2.07-.05-2.48.22-5.15-2.76-6.34-3.41-1.36-6.16-.46-8.18,2.6-1.62,2.47-7.38,3.63-9.81,2-1-.69-1-1.48-.73-2.56a12.81,12.81,0,0,1,4.73-7.4c5.66-4.29,16.14-4.9,22.3-1.38,4.68,2.68,5.73,7,5.7,11.9C382.22,223.21,382.23,225.54,382.23,227.87ZM371,234.31c-.68-1.26,1.48-4.31-2.24-4a11.65,11.65,0,0,0-6.93,2.39c-2.67,2.26-2.59,5.29-1.83,8.24a3.91,3.91,0,0,0,4.12,3c3-.11,4.7-1.95,5.95-4.53C370.84,237.77,370.78,236.15,371,234.31Z"/><path class="cls-3" d="M278.8,228.48c.36,5-.62,10.25,2.67,15.51,2,3.15-3.33,4.46-5.18,6.73-1.51,1.86-3.15.6-4-.82-2.12-3.41-3.91-2.75-6.82-.6a13.85,13.85,0,0,1-15.52.95c-5-2.69-5.6-7.48-5.22-12.53.44-5.83,3.85-9.53,9-11.4,3.24-1.17,6.81-1.37,10.19-2.19,1.36-.33,3.72.93,3.82-1.86.1-2.54,0-5.19-2.76-6.42-3.55-1.58-6.43-.67-8.48,2.74-1.42,2.34-7.82,3.31-9.94,1.61-1.19-.95-.77-2.13-.41-3.17a13.12,13.12,0,0,1,6.08-7.63,22.26,22.26,0,0,1,19.73-1c5.29,2.16,7,6.72,6.85,12.16C278.75,223.1,278.8,225.59,278.8,228.48Zm-11,5.28c-.38-1.18.89-3-1.43-3.56-3.15-.77-8.55,2-9.82,5.26s-.83,6.07,2.14,7.8c3.29,1.91,5.58-.15,7.38-2.83A12.52,12.52,0,0,0,267.78,233.76Z"/><path class="cls-3" d="M477.85,213.51c.77-1,1.32-1.82,1.9-2.56,2.93-3.67,6.81-4.61,11.18-3.57a9.71,9.71,0,0,1,7.91,8.58c1.48,10.91.37,21.9.68,32.86,0,.83,0,1.88-1,2.09a17.2,17.2,0,0,1-8.84,0c-2.14-.67-1-3.22-1-4.88-.13-6.65,0-13.3-.08-19.94a32.78,32.78,0,0,0-.55-4.92c-.36-2.17-1.57-3.73-3.81-4-2.48-.32-4.12,1.17-5.12,3.22a14.85,14.85,0,0,0-1.31,6.77c.07,6.48-.32,13,.14,19.44.35,4.94-2.29,4.8-5.73,4.75-3.21-.05-5.65.21-5.49-4.54.38-11.45.14-22.93.1-34.4,0-2.47-.15-5,3.43-4.41,2.67.47,7.36-2.37,7,3.81A5.8,5.8,0,0,0,477.85,213.51Z"/><path class="cls-3" d="M461,229.75a24.24,24.24,0,0,1-4,14.85c-7.17,10.67-22.21,10.21-28.35-1.06-4.75-8.72-4.62-17.89-.64-26.82,2.8-6.28,8-9.68,15-9.67,7.17,0,12.29,3.52,15.41,9.89A25.92,25.92,0,0,1,461,229.75Zm-11.41-1.26c-.26-1.94-.59-5.42-1.26-8.83a4.79,4.79,0,0,0-4.89-4.15,4.9,4.9,0,0,0-5.25,3.74,35.44,35.44,0,0,0,.19,20.6c.66,2.19,2.13,3.92,4.6,4,2.63.05,4.34-1.58,5.15-4C449.22,236.68,449.52,233.37,449.59,228.49Z"/><path class="cls-3" d="M406.7,216.71c-4.17,0-7.17-.19-10.14,0-3.64.3-4.89-.91-4.91-4.73s1.65-4.32,4.79-4.24c6.15.17,12.31,0,18.46.1,1.89,0,4.71-1.09,5.49,1a8.46,8.46,0,0,1-.83,8.08c-4,5.54-7.84,11.13-11.74,16.71-.64.92-1.24,1.86-2.06,3.11,4.13.62,7.91.77,11.44,2.2a7.31,7.31,0,0,1,4.32,9.63c-.66,1.83-1.73,1.62-3.12,1a29.47,29.47,0,0,0-25.08.07c-1.92.87-2.92.29-3-1.71-.14-4-.19-7.82,2.47-11.37C397.44,230.4,401.69,223.92,406.7,216.71Z"/><path class="cls-1" d="M151.91,246.82c-6.88-2.31-13.13-4.46-19.43-6.48a2.87,2.87,0,0,1-2.36-3.19c.06-8.48.09-17,0-25.44,0-2.71,1.08-3.21,3.34-2.3l.47.17c5.84,1.87,13.59,1.66,17,5.95,3.3,4.11.75,11.49.93,17.43C152,237.27,151.91,241.59,151.91,246.82Z"/><path class="cls-1" d="M265.71,163.15c6.62,1.95,12.63,3.79,18.68,5.47,1.9.53,2.69,1.4,2.66,3.44q-.14,13.19,0,26.4c0,2.44-.91,2.93-3,2a9.52,9.52,0,0,0-.94-.34c-5.61-2-13-2.42-16.36-6.32s-.82-11.45-1-17.38C265.59,172.13,265.71,167.86,265.71,163.15Z"/><path class="cls-1" d="M233,185.26c0,4.31-.1,8.62,0,12.93.07,2.61-.83,3.34-3.18,2.19a3.75,3.75,0,0,0-.47-.17c-5.75-2-13.23-2.55-16.76-6.54s-1-11.43-.95-17.35c0-4.16-2.09-9.92,1.11-12.08,2.73-1.84,7.68,1.61,11.64,2.75,8.62,2.48,8.6,2.53,8.59,11.31Q233,181.78,233,185.26Z"/><path class="cls-1" d="M178.94,275.19c0,5.42-.06,9.74,0,14.06.05,2.26-.55,3-2.88,2.14-5.15-1.87-10.34-3.65-15.58-5.22-2.38-.71-3-2-3-4.34q.15-12.21,0-24.42c0-2.82.85-3.64,3.47-2.47a24.77,24.77,0,0,0,2.84.92c4.9,1.52,11.46,1.64,14.25,4.95C181.09,264.4,178.6,271,178.94,275.19Z"/><path class="cls-1" d="M233,224.15c0,3.81-.16,7.64.05,11.44.16,2.87-.58,4.51-3.6,5.35-4.94,1.37-9.77,3.16-14.61,4.85-2.16.76-3.31.73-3.26-2.14.14-8.62.08-17.24,0-25.87,0-1.9.51-3.1,2.48-3.66,5.42-1.54,10.82-3.13,16.19-4.82,2.45-.77,2.83.35,2.8,2.41-.08,4.14,0,8.29,0,12.44Z"/><path class="cls-1" d="M205.94,254c0,9.88,0,19.31,0,28.75,0,1.84-.82,2.66-2.44,3.18-5.37,1.74-10.75,3.46-16.05,5.39-2.32.84-3,.18-3-2.09q.06-13.22,0-26.42a2.89,2.89,0,0,1,2.38-3.22C193.09,257.83,199.26,256,205.94,254Z"/><path class="cls-1" d="M157.53,230.47c0-3.15.32-6.35-.08-9.46-.59-4.61,1-7,5.66-7.91a117.86,117.86,0,0,0,12.9-3.75c2.14-.67,3-.24,3,2.17q-.15,12.71-.05,25.42a3.15,3.15,0,0,1-2.54,3.56c-5.21,1.66-10.4,3.44-15.56,5.27-2.9,1-3.4-.34-3.34-2.83C157.61,238.78,157.53,234.63,157.53,230.47Z"/><path class="cls-1" d="M206,246.82c-6.75-2.25-12.85-4.34-19-6.29-1.9-.61-2.53-1.71-2.51-3.65.07-8.3.11-16.6,0-24.9,0-3,1.07-3.25,3.6-2.41q7.32,2.43,14.79,4.37c2.32.61,3.2,1.67,3.17,4.13C205.92,227.35,206,236.64,206,246.82Z"/><path class="cls-1" d="M238.67,201.35c0-10.36,0-20.13,0-29.9,0-1.63.8-2.26,2.28-2.68,6.19-1.76,12.36-3.63,19-5.61,0,9.9,0,19.33,0,28.76a2.71,2.71,0,0,1-2,3C251.75,197,245.5,199.08,238.67,201.35Z"/><path class="cls-1" d="M292.72,183.74c.35-4.14-2-10.41.84-13.71s9-3.46,13.73-4.9c6.82-2.07,6.84-2,6.82,5.1,0,6.65-.15,13.31,0,20,.08,2.94-.72,4.55-3.73,5.38a136.19,136.19,0,0,0-14.18,4.72c-3.26,1.3-3.63,0-3.54-2.75C292.82,193.22,292.72,188.89,292.72,183.74Z"/><path class="cls-3" d="M252.87,280.65c1-4,1.93-8,3.14-11.95.47-1.52.16-3.89,2.92-3.92s2.53,2,3.14,3.7c1.5,4.12,1.83,8.64,4.25,13.2,1.41-5.14,2.62-9.57,3.84-14,.53-1.94,1.51-3.57,3.79-2.73,2.12.76.86,2.54.52,3.8-1.78,6.72-3.72,13.41-5.49,20.14-.45,1.72-.73,3.11-3,3.11s-2.52-1.74-3-3.26a79.54,79.54,0,0,0-4.38-12.41c-1.17,4.17-2.43,8.33-3.47,12.53-.43,1.71-.59,3.08-2.94,3.16s-2.61-1.7-3-3.16c-2-6.83-3.9-13.7-5.8-20.56-.35-1.3-1.57-3.06,1-3.44,1.61-.25,3.25-.33,3.83,2,1.15,4.63,2.57,9.21,3.87,13.81Z"/><path class="cls-3" d="M307,266.65c8.86-4.64,15.8-.84,16.81,8.77a18.43,18.43,0,0,1-1.95,11.1c-2.57,4.63-7.29,6.38-11.77,4.61-1.83-.73-3.56-3.89-5.89-.28-.55.86-2.18,0-2.18-1.59q0-15.43,0-30.88c0-1.66.87-2.32,2.48-2.39,2-.09,2.59.94,2.55,2.74C306.91,261.22,307,263.71,307,266.65Zm11.69,11.85c.07-5.91-2.4-10.21-5.81-10.13s-5.92,4.13-5.88,10.06c.05,5.71,2.43,9.39,6,9.33C316.24,287.7,318.58,283.85,318.64,278.5Z"/><path class="cls-3" d="M354.82,278.44a14.76,14.76,0,0,1,1.26-6.52,11.11,11.11,0,0,1,13.26-7c4.76,1.08,8.49,6.38,8.44,11.65,0,2.11-1,2.5-2.76,2.48-4,0-8,.09-12,0-2.32-.08-2.82.84-2.47,3a6.58,6.58,0,0,0,4.39,5.55,5.12,5.12,0,0,0,6.5-2.28c1.34-2.21,3-3,4.78-1.32,2,1.83-.3,3.31-1.34,4.51-3.33,3.85-7.73,4.31-12.28,3C357.76,289.94,354.9,285,354.82,278.44Zm11.49-3c1.76-1.28,5.2,1.52,5.53-2,.26-2.83-2-4.87-5.16-4.86-3.29,0-5.79,2.18-5.62,5.1C361.24,277,364.61,274.24,366.31,275.45Z"/><path class="cls-3" d="M290,279a17.52,17.52,0,0,0-3,0c-1.8.34-4.46-1.22-5.26,1.08a5.73,5.73,0,0,0,2.22,6.2c2.14,1.72,4.47,2.11,6.9.55a3.68,3.68,0,0,0,1.1-1c1.34-2.05,3.19-4.44,5.34-1.92,2,2.3-1,4.12-2.54,5.58-2.76,2.6-6.35,2.8-9.85,2.18-6.35-1.11-10.44-9-8.81-16.67s7.41-11.83,14.36-10.19c4.7,1.12,9.06,7.62,8.33,12.21-.24,1.52-1,1.91-2.33,1.91Zm-2.43-3.58c1.77-1.2,5,1.48,5.37-1.67s-2-5.27-5.41-5.2c-3.05.06-5.5,2.18-5.37,4.88C282.31,277.06,285.87,274.06,287.55,275.45Z"/><path class="cls-3" d="M466.4,279.05a14.9,14.9,0,0,0-3,0c-1.8.37-4.45-1.29-5.26,1.16-.66,2,.5,4.25,2.16,5.8,1.83,1.7,3.94,2.44,6.4,1.32a6.08,6.08,0,0,0,2.88-2.67c1.07-1.95,2.63-2,4.19-.92,2.4,1.62.09,3-.64,4-3,4.19-7.46,4.84-12.08,3.87-6-1.28-9.34-8.05-8.29-16.17.87-6.67,5.8-11.13,12-10.88,6.05.24,11.16,6.19,10.66,12.21-.26,3-2.45,2.06-4.08,2.18S468.06,279.05,466.4,279.05Zm-8.12-4.54c.07-.18.28.57,1,.59,3.16.09,6.32.1,9.48,0,1.13,0,1.16-1,.93-1.86-.78-2.84-2.46-4.77-5.62-4.63S459.46,270.85,458.28,274.51Z"/><path class="cls-3" d="M488,291.94c-3.67.1-6.92-.94-9.25-3.89-.91-1.17-2.66-2.69-.47-4.12,1.44-.95,3-1,4.17.94,1.79,3,4.74,3.41,7.87,2.78,1.7-.34,3.18-1.34,3.29-3.25s-1.4-2.89-3.08-3.35c-2.4-.64-4.87-1-7.23-1.74-3.57-1.11-5.63-3.62-5.33-7.42a7.16,7.16,0,0,1,6.23-6.81c4.36-.86,8.7-.88,11.85,3,.8,1,2.51,2.34.55,3.68-1.19.81-2.78,1.33-3.93-.39-1.58-2.38-3.87-2.94-6.53-2.52a3.26,3.26,0,0,0-3,2.85c-.2,1.7,1.11,2.68,2.65,3.12s2.9.66,4.36,1c6.37,1.33,9.12,4.14,8.64,8.83S494.18,292,488,291.94Z"/><path class="cls-3" d="M341.91,291.94c-3.66.12-7-.77-9.35-3.72-.91-1.14-2.85-2.64-.93-4.15,1.4-1.09,3.16-1.33,4.56.94,1.77,2.88,4.81,3.35,7.94,2.59,1.73-.42,3-1.47,3-3.48,0-1.82-1.29-2.63-2.8-3-2.4-.64-4.87-1-7.24-1.74-3.58-1.09-5.51-3.44-5.32-7.39s2.58-6.11,6.08-6.87c4.35-.95,8.67-.83,11.9,3,.9,1.07,2.26,2.49.52,3.75-1.15.82-2.85,1.25-4-.45a5.64,5.64,0,0,0-5.54-2.59c-2,.13-3.69.68-3.85,3-.15,2.11,1.33,2.83,3.1,3.2,1.3.27,2.59.57,3.88.84,6.36,1.35,9.06,4.22,8.44,9C351.71,289.35,347.94,291.94,341.91,291.94Z"/><path class="cls-3" d="M408.31,284.3c2.13-6.61,3.87-11.78,5.42-17,.62-2.1,1.7-3.44,3.87-2.78,2.66.81,1,2.65.53,4.06q-3.19,10.2-6.53,20.36c-.5,1.56-.94,3.07-3.26,3s-3.21-.76-3.87-2.89c-2.19-7-4.63-13.84-6.91-20.77-.41-1.25-2-2.92.38-3.71,2-.69,3.95-.38,4.75,2.17C404.37,272.15,406.12,277.49,408.31,284.3Z"/><path class="cls-3" d="M434.67,278.19A14.38,14.38,0,0,0,436,284.5a4.83,4.83,0,0,0,4.06,3.25c2.23.18,3.74-1,4.7-3,.29-.6.51-1.23.79-1.83.9-1.85,2.61-1.41,3.89-1,1.56.56.68,2,.35,3-1.17,3.54-3.5,6.1-7.22,6.8s-7.23-.12-9.85-3.31c-4.17-5.07-4.05-15.5.25-20.45,2.71-3.11,6.12-3.82,9.93-3,3.57.72,5.77,3.1,6.87,6.47.37,1.14,1.29,2.72-.61,3.35-1.4.45-2.95.55-3.64-1.43-.93-2.67-2.36-4.95-5.7-4.39-3.14.53-4,3.19-4.73,5.78A22.92,22.92,0,0,0,434.67,278.19Z"/><path class="cls-1" d="M308.53,159.52c-12.48,6-24.67,6.44-36.62.21C283.2,153.25,291.07,153.14,308.53,159.52Z"/><path class="cls-1" d="M163.47,250.61c11.93-6.76,24.32-7,36.36,0C187.84,256.68,175.45,256.45,163.47,250.61Z"/><path class="cls-1" d="M217.73,159.77c11.93-7.1,24.24-6.79,36.25,0C241.93,165.56,229.62,165.83,217.73,159.77Z"/><path class="cls-1" d="M190.78,205.18c12.08-7,24.22-6.74,36,0C214.91,211,202.72,211.27,190.78,205.18Z"/><path class="cls-1" d="M136.74,205.22c11.91-7.12,24.07-6.7,36,0C160.89,211,148.75,211.17,136.74,205.22Z"/><path class="cls-3" d="M384,265.69c2.28,4.26,4.19-.52,6.5-.65,1.39-.08,3.17-.82,3.55,1.45.28,1.62-.09,2.86-2.08,3.27-4.63.94-5.74,4.6-6,8.57-.22,3.47-.07,7-.05,10.44,0,1.78,0,3.31-2.52,3.19-2-.1-2.51-1.09-2.5-2.85,0-7,.06-13.93,0-20.89C380.87,266.24,381.73,265.5,384,265.69Z"/><path class="cls-3" d="M426.6,278.55c0,3.48-.06,7,0,10.45.05,2-.51,3-2.78,3s-2.81-1-2.79-3q.1-11,0-21.89c0-2.16,1-3,3-2.91s2.53,1.13,2.51,2.9C426.57,270.92,426.6,274.73,426.6,278.55Z"/><path class="cls-3" d="M426.9,257.66c0,2-.95,3.23-2.94,3.3a2.81,2.81,0,0,1-3.15-3,2.75,2.75,0,0,1,2.68-3A2.86,2.86,0,0,1,426.9,257.66Z"/><path class="cls-2" d="M371,234.31c-.22,1.84-.16,3.46-.93,5.05-1.25,2.58-3,4.42-5.95,4.53a3.91,3.91,0,0,1-4.12-3c-.76-3-.84-6,1.83-8.24a11.65,11.65,0,0,1,6.93-2.39C372.48,230,370.32,233.05,371,234.31Z"/><path class="cls-2" d="M267.78,233.76a12.52,12.52,0,0,1-1.73,6.67c-1.8,2.68-4.09,4.74-7.38,2.83-3-1.73-3.37-4.68-2.14-7.8s6.67-6,9.82-5.26C268.67,230.77,267.4,232.58,267.78,233.76Z"/><path class="cls-2" d="M449.59,228.49c-.07,4.88-.37,8.19-1.46,11.35-.81,2.39-2.52,4-5.15,4-2.47,0-3.94-1.77-4.6-4a35.44,35.44,0,0,1-.19-20.6,4.9,4.9,0,0,1,5.25-3.74,4.79,4.79,0,0,1,4.89,4.15C449,223.07,449.33,226.55,449.59,228.49Z"/><path class="cls-2" d="M318.64,278.5c-.06,5.35-2.4,9.2-5.65,9.26-3.61.06-6-3.62-6-9.33,0-5.93,2.32-10,5.88-10.06S318.71,272.59,318.64,278.5Z"/><path class="cls-2" d="M366.31,275.45c-1.7-1.21-5.07,1.53-5.25-1.72-.17-2.92,2.33-5.08,5.62-5.1,3.13,0,5.42,2,5.16,4.86C371.51,277,368.07,274.17,366.31,275.45Z"/><path class="cls-2" d="M287.55,275.45c-1.68-1.39-5.24,1.61-5.41-2-.13-2.7,2.32-4.82,5.37-4.88,3.37-.07,5.73,2.15,5.41,5.2S289.32,274.25,287.55,275.45Z"/><path class="cls-2" d="M458.28,274.51c1.18-3.66,2.73-5.74,5.82-5.89s4.84,1.79,5.62,4.63c.23.82.2,1.83-.93,1.86-3.16.09-6.32.08-9.48,0C458.56,275.08,458.35,274.33,458.28,274.51Z"/></svg>